<svg width="30" height="30" viewBox="0 0 30 30" fill="none" xmlns="http://www.w3.org/2000/svg">
<path d="M14.7513 20.008C14.7513 20.1553 14.8651 20.2758 15.0024 20.2758H21.1966C21.3339 20.2758 21.4477 20.1553 21.4477 20.008V18.4008C21.4477 18.2535 21.3339 18.133 21.1966 18.133H15.0024C14.8651 18.133 14.7513 18.2535 14.7513 18.4008V20.008ZM8.2256 20.2122L14.6542 14.8216C14.7814 14.7144 14.7814 14.5169 14.6542 14.4098L8.2256 9.02248C8.1868 8.98948 8.13933 8.96831 8.08885 8.96148C8.03837 8.95465 7.98699 8.96245 7.9408 8.98395C7.89462 9.00546 7.85558 9.03976 7.82832 9.08279C7.80105 9.12583 7.78671 9.17578 7.78699 9.22672V11.3261C7.78699 11.4064 7.82047 11.4801 7.88409 11.5303L11.5604 14.6173L7.88409 17.7044C7.85416 17.7295 7.82999 17.7607 7.81323 17.7959C7.79647 17.8312 7.78752 17.8696 7.78699 17.9086V20.008C7.78699 20.2357 8.0515 20.3595 8.2256 20.2122ZM26.9388 1.22449H2.29592C1.70328 1.22449 1.22449 1.70328 1.22449 2.29592V26.9388C1.22449 27.5314 1.70328 28.0102 2.29592 28.0102H26.9388C27.5314 28.0102 28.0102 27.5314 28.0102 26.9388V2.29592C28.0102 1.70328 27.5314 1.22449 26.9388 1.22449ZM25.5995 25.5995H3.6352V3.6352H25.5995V25.5995Z" fill="white"/>
</svg>
