<svg width="13" height="13" viewBox="0 0 13 13" fill="none" xmlns="http://www.w3.org/2000/svg">
<path d="M8.66642 2.16687H1.0833C0.795993 2.16687 0.520451 2.281 0.317292 2.48416C0.114133 2.68732 0 2.96287 0 3.25018L0 11.9166C0 12.2039 0.114133 12.4795 0.317292 12.6826C0.520451 12.8858 0.795993 12.9999 1.0833 12.9999H8.66642C8.95374 12.9999 9.22928 12.8858 9.43244 12.6826C9.6356 12.4795 9.74973 12.2039 9.74973 11.9166V3.25018C9.74973 2.96287 9.6356 2.68732 9.43244 2.48416C9.22928 2.281 8.95374 2.16687 8.66642 2.16687ZM8.66642 11.9166H1.0833V3.25018H8.66642V11.9166Z" fill="white"/>
<path d="M12.0007 0.000297106H4.50746C4.37806 -0.00261057 4.25279 0.0459498 4.15916 0.135317C4.06552 0.224684 4.01118 0.347554 4.00806 0.476952C4.01118 0.60635 4.06552 0.72922 4.15916 0.818588C4.25279 0.907955 4.37806 0.956515 4.50746 0.953607H12.0007V9.05675C12.009 9.18351 12.0653 9.30235 12.158 9.38918C12.2507 9.47601 12.373 9.52432 12.5001 9.52432C12.6271 9.52432 12.7494 9.47601 12.8421 9.38918C12.9349 9.30235 12.9911 9.18351 12.9995 9.05675V0.953607C12.9967 0.825375 12.9686 0.698958 12.9168 0.581599C12.8651 0.46424 12.7907 0.358245 12.6979 0.269687C12.6051 0.18113 12.4958 0.11175 12.3761 0.0655231C12.2565 0.0192963 12.1289 -0.00286902 12.0007 0.000297106Z" fill="white"/>
</svg>
