<svg t="1691569762360" class="icon" viewBox="0 0 1280 1024" version="1.1" xmlns="http://www.w3.org/2000/svg" p-id="1513" width="200" height="200"><path d="M95.829333 1016.32l-3.498666-0.341333a42.666667 42.666667 0 0 1-7.68-1.621334l-1.450667-0.512a40.362667 40.362667 0 0 1-27.477333-31.744l-0.341334-2.304a42.069333 42.069333 0 0 1-0.426666-4.949333V103.936c0-53.589333 43.52-97.024 97.024-97.024h353.28a42.666667 42.666667 0 0 1 32.853333 15.36l123.136 147.712h346.88c50.005333 0 91.136 37.888 96.426667 86.442667l0.597333 10.581333-0.085333 120.32 79.701333 0.085333a42.666667 42.666667 0 0 1 42.666667 43.946667l-0.853334 7.082667-108.714666 543.573333a42.666667 42.666667 0 0 1-41.813334 34.304H95.829333z m1036.8-543.573333H266.752l-114.517333 458.24h888.746666l91.648-458.24zM485.290667 92.16H151.893333a11.690667 11.690667 0 0 0-11.690666 11.690667l-0.085334 510.122666 46.762667-193.962666a42.666667 42.666667 0 0 1 34.133333-32l7.338667-0.682667h791.296V267.093333c0-5.205333-3.242667-9.642667-7.936-11.093333l-3.669333-0.682667h-366.933334a42.666667 42.666667 0 0 1-32.768-15.36l-123.136-147.626666z" fill="#1296db" p-id="1514"></path></svg>