<svg width="18" height="17" viewBox="0 0 18 17" fill="none" xmlns="http://www.w3.org/2000/svg">
<g clip-path="url(#clip0)">
<path d="M6.81748 17.0183C6.77068 17.0183 6.72184 17.012 6.67504 16.9975C5.273 16.6014 3.97881 15.8424 2.93084 14.7992C2.82095 14.6893 2.76398 14.5359 2.77212 14.3803C2.78026 14.2248 2.85555 14.0775 2.97764 13.9821C3.64712 13.4512 3.83229 12.491 3.40904 11.7465C2.98374 10.9999 2.07618 10.6847 1.29275 11.0041C1.15031 11.0642 0.987515 11.058 0.851177 10.9854C0.71484 10.9149 0.613095 10.7863 0.576467 10.6349C0.397397 9.91529 0.307861 9.17699 0.307861 8.4387C0.307861 7.70247 0.397397 6.96418 0.576467 6.24247C0.61513 6.09108 0.71484 5.9625 0.851177 5.88992C0.987515 5.81733 1.14827 5.81111 1.29275 5.87125C2.07415 6.19477 2.98171 5.87747 3.407 5.13088C3.83026 4.38844 3.64508 3.42617 2.97561 2.89526C2.85351 2.79779 2.78026 2.65262 2.77008 2.49708C2.76194 2.34154 2.81892 2.18807 2.9288 2.07816C3.97677 1.035 5.273 0.273894 6.673 -0.12014C6.82359 -0.159544 6.98027 -0.134657 7.10847 -0.049629C7.23667 0.0374732 7.32213 0.174348 7.34248 0.329888C7.45644 1.18225 8.18086 1.82514 9.02534 1.82514C9.6297 1.82514 10.4905 0.908496 10.7143 0.506166C10.698 0.423212 10.7021 0.334036 10.7265 0.246933C10.812 -0.0392597 11.1091 -0.198947 11.3878 -0.118067C11.3878 -0.118067 11.3878 -0.118067 11.3899 -0.118067C12.8509 0.32574 14.1065 1.06611 15.1219 2.07608C15.2318 2.186 15.2908 2.33946 15.2826 2.495C15.2745 2.65054 15.1992 2.79571 15.0771 2.89318C14.4097 3.42409 14.2225 4.38429 14.6457 5.12881C15.071 5.8754 15.9806 6.19477 16.762 5.86918C16.9044 5.80904 17.0652 5.81526 17.2036 5.88784C17.3419 5.95835 17.4417 6.08693 17.4783 6.2404C17.6574 6.9621 17.7469 7.7004 17.7469 8.43455C17.7469 9.1687 17.6553 9.90699 17.4783 10.6308C17.4396 10.7822 17.3399 10.9107 17.2036 10.9813C17.0652 11.0538 16.9065 11.0601 16.762 10.9999C15.9806 10.6785 15.071 10.9958 14.6457 11.7424C14.2225 12.4848 14.4076 13.4471 15.0771 13.978C15.1992 14.0734 15.2725 14.2186 15.2826 14.3762C15.2928 14.5338 15.2338 14.6852 15.1219 14.7951C14.0759 15.8362 12.7818 16.5973 11.3777 16.9934C11.2291 17.0349 11.0704 17.01 10.9442 16.9229C10.816 16.8358 10.7306 16.6968 10.7082 16.5434C10.5942 15.691 9.87186 15.0481 9.02534 15.0481C8.18086 15.0481 7.45644 15.691 7.34248 16.5434C7.32213 16.6989 7.23667 16.8358 7.10847 16.9229C7.02301 16.9892 6.92126 17.0183 6.81748 17.0183ZM4.07852 14.3969C4.78055 15.0004 5.58434 15.4732 6.4451 15.7864C6.84393 14.7163 7.86545 13.9676 9.02941 13.9676C10.1934 13.9676 11.2149 14.7163 11.6137 15.7864C12.4765 15.4732 13.2783 15.0004 13.9803 14.3969C13.2701 13.5051 13.144 12.2297 13.728 11.2032C14.31 10.1787 15.4576 9.65813 16.5646 9.83026C16.646 9.36986 16.6847 8.90324 16.6847 8.44077C16.6847 7.9783 16.644 7.51375 16.5646 7.05128C15.4617 7.23378 14.312 6.70287 13.728 5.67838C13.144 4.65389 13.2701 3.37847 13.9803 2.48671C13.2945 1.89773 12.4969 1.43318 11.6015 1.09929C11.1477 1.85833 10.0509 2.91392 9.02941 2.91392C7.86749 2.91392 6.84597 2.16526 6.4451 1.09514C5.58434 1.40622 4.78055 1.87906 4.07852 2.48671C4.78869 3.37847 4.91486 4.65389 4.33084 5.67838C3.74683 6.70287 2.60729 7.22963 1.49624 7.05128C1.41484 7.51168 1.37414 7.97622 1.37414 8.44077C1.37414 8.90532 1.41484 9.36986 1.49624 9.83026C2.60119 9.65191 3.74886 10.1787 4.33288 11.2052C4.91282 12.2276 4.78869 13.5051 4.07852 14.3969Z" fill="#8F959E"/>
<path d="M9.02738 11.2613C7.50325 11.2613 6.26196 9.99622 6.26196 8.44082C6.26196 6.88542 7.50325 5.62244 9.02738 5.62244C10.5515 5.62244 11.7928 6.88749 11.7928 8.44082C11.7928 9.99414 10.5515 11.2613 9.02738 11.2613ZM9.02738 6.70914C8.0893 6.70914 7.32621 7.48684 7.32621 8.44289C7.32621 9.39894 8.0893 10.1766 9.02738 10.1766C9.96547 10.1766 10.7265 9.39894 10.7265 8.44289C10.7265 7.48684 9.96547 6.70914 9.02738 6.70914Z" fill="#8F959E"/>
</g>
<defs>
<clipPath id="clip0">
<rect width="18" height="17" fill="white"/>
</clipPath>
</defs>
</svg>
