<svg width="30" height="28" viewBox="0 0 30 28" fill="none" xmlns="http://www.w3.org/2000/svg">
<path d="M21.3392 18.4174L28.0102 13.9631L21.3392 9.50881V18.4174ZM26.9576 22.1457H2.7997C2.22075 22.1457 1.74707 22.5887 1.74707 23.1301C1.74707 23.6715 2.22075 24.1145 2.7997 24.1145H26.9576C27.5365 24.1145 28.0102 23.6715 28.0102 23.1301C28.0102 22.5887 27.5365 22.1457 26.9576 22.1457ZM2.78654 5.76819H26.9576C27.5365 5.76819 28.0102 5.32522 28.0102 4.78381C28.0102 4.24241 27.5365 3.79944 26.9576 3.79944H2.7997C2.22075 3.79944 1.74707 4.24241 1.74707 4.78381C1.74707 5.32522 2.2076 5.76819 2.78654 5.76819ZM2.78654 11.8836H18.4971C19.076 11.8836 19.5497 11.4407 19.5497 10.8992C19.5497 10.3578 19.076 9.91487 18.4971 9.91487H2.7997C2.22075 9.91487 1.74707 10.3578 1.74707 10.8992C1.74707 11.4407 2.2076 11.8836 2.78654 11.8836ZM2.78654 17.9991H18.4971C19.076 17.9991 19.5497 17.5561 19.5497 17.0147C19.5497 16.4733 19.076 16.0303 18.4971 16.0303H2.7997C2.22075 16.0303 1.74707 16.4733 1.74707 17.0147C1.74707 17.5561 2.2076 17.9991 2.78654 17.9991Z" fill="#2F80ED"/>
</svg>
