<?xml version="1.0" standalone="no"?><!DOCTYPE svg PUBLIC "-//W3C//DTD SVG 1.1//EN" "http://www.w3.org/Graphics/SVG/1.1/DTD/svg11.dtd"><svg t="1581572070673" class="icon" viewBox="0 0 1280 1024" version="1.1" xmlns="http://www.w3.org/2000/svg" p-id="6010" xmlns:xlink="http://www.w3.org/1999/xlink" width="250" height="200"><defs><style type="text/css"></style></defs><path d="M557.85 1023l-122-35.4c-12.8-3.6-20-17-16.4-29.8L692.45 17.4c3.6-12.8 17-20 29.8-16.4l122 35.4c12.8 3.6 20 17 16.4 29.8L587.65 1006.6c-3.8 12.8-17 20.2-29.8 16.4z m-228-224.4l87-92.8c9.2-9.8 8.6-25.4-1.6-34.4L234.05 512l181.2-159.4c10.2-9 11-24.6 1.6-34.4l-87-92.8c-9-9.6-24.2-10.2-34-1L7.65 494.4c-10.2 9.4-10.2 25.6 0 35l288.2 270.2c9.8 9.2 25 8.8 34-1z m654.4 1.2l288.2-270.2c10.2-9.4 10.2-25.6 0-35L984.25 224.2c-9.6-9-24.8-8.6-34 1L863.25 318c-9.2 9.8-8.6 25.4 1.6 34.4L1046.05 512l-181.2 159.4c-10.2 9-11 24.6-1.6 34.4l87 92.8c9 9.8 24.2 10.2 34 1.2z" p-id="6011" fill="#1296db"></path></svg>