<?xml version="1.0" standalone="no"?><!DOCTYPE svg PUBLIC "-//W3C//DTD SVG 1.1//EN" "http://www.w3.org/Graphics/SVG/1.1/DTD/svg11.dtd"><svg t="1581491221903" class="icon" viewBox="0 0 1024 1024" version="1.1" xmlns="http://www.w3.org/2000/svg" p-id="3145" xmlns:xlink="http://www.w3.org/1999/xlink" width="200" height="200"><defs><style type="text/css"></style></defs><path d="M165.830457 457.978681a209.284178 209.284178 0 0 1 34.2921-323.318208c83.222322-54.969726 195.004333-38.437862 265.584643 32.091264l32.705451 32.654269a52.205885 52.205885 0 1 0 73.855972-73.855972l-27.63841-27.638409C423.277123-23.339101 223.871117-35.674021 98.832905 81.891584a313.337672 313.337672 0 0 0-6.85842 449.994252l36.953577 36.902394A52.205885 52.205885 0 1 0 202.784034 494.932259l-36.902395-36.953578z m759.339709 20.31935l-26.665947-26.614765a52.205885 52.205885 0 1 0-73.907154 73.855972l32.756633 32.705451c70.529126 70.529126 87.009808 182.311138 32.040082 265.53346a209.437725 209.437725 0 0 1-323.471755 34.189736l-36.902395-36.953577a52.205885 52.205885 0 1 0-73.907154 73.907154l36.953577 36.902395a313.542401 313.542401 0 0 0 449.124154-5.885957c118.742796-124.98703 105.947236-325.723774-16.020041-447.639869z m-211.433833 305.813882l-473.94754-473.845176a52.308249 52.308249 0 0 1 73.907155-73.907154l473.94754 473.845176a52.308249 52.308249 0 0 1-73.907155 73.907154z" p-id="3146"></path></svg>